<?xml version="1.0" encoding="UTF-8" ?>
<!DOCTYPE svg PUBLIC "-//W3C//DTD SVG 1.1//EN" "http://www.w3.org/Graphics/SVG/1.1/DTD/svg11.dtd">
<svg width="934pt" height="309pt" viewBox="0 0 934 309" version="1.1" xmlns="http://www.w3.org/2000/svg">
<path fill="#ffffff" d=" M 0.00 0.00 L 934.00 0.00 L 934.00 309.00 L 0.00 309.00 L 0.00 0.00 Z" />
<path fill="#7f7f7f" d=" M 54.40 40.62 C 65.12 38.66 76.40 39.64 86.62 43.41 C 89.62 44.66 93.43 46.40 93.84 50.06 C 93.81 52.90 92.02 56.20 88.98 56.67 C 83.94 54.90 79.30 51.97 73.97 50.99 C 64.65 49.17 54.13 49.57 46.07 55.10 C 40.15 59.25 38.73 67.28 39.85 74.01 C 40.95 81.30 46.91 86.98 53.59 89.50 C 63.06 93.02 72.56 96.61 81.43 101.49 C 90.05 106.11 95.30 115.49 96.49 125.00 C 97.53 133.72 96.99 142.99 93.02 150.96 C 89.17 158.77 81.39 164.05 73.10 166.17 C 64.80 168.23 56.00 168.12 47.67 166.33 C 39.58 164.38 31.61 160.24 26.51 153.52 C 23.49 149.93 25.32 143.49 30.02 142.57 C 32.99 143.23 34.69 146.20 36.82 148.16 C 43.70 156.03 55.11 157.77 65.01 156.63 C 72.62 155.87 80.33 151.65 83.40 144.35 C 87.49 134.22 85.99 120.99 77.25 113.71 C 66.33 105.00 51.74 103.36 40.18 95.80 C 33.46 91.47 29.26 83.85 28.37 76.00 C 27.42 67.69 28.66 58.69 33.82 51.88 C 38.71 45.41 46.74 42.33 54.40 40.62 Z" />
<path fill="#7f7f7f" d=" M 344.04 44.92 C 343.74 42.10 346.27 39.88 348.98 39.99 C 353.55 39.67 356.52 43.87 358.48 47.41 C 368.53 66.72 378.52 86.06 388.53 105.39 C 398.07 86.93 407.67 68.51 417.17 50.04 C 418.83 46.91 420.47 43.55 423.39 41.40 C 425.71 39.66 429.29 39.37 431.61 41.26 C 433.29 42.65 433.03 45.03 433.15 46.98 C 433.09 84.99 433.14 123.00 433.13 161.01 C 433.98 166.41 426.35 168.09 423.06 164.95 C 421.52 163.78 421.86 161.66 421.72 159.98 C 421.78 128.26 421.74 96.53 421.75 64.81 C 412.26 82.66 402.83 100.54 393.39 118.42 C 392.27 120.47 390.66 122.99 387.96 122.73 C 385.69 122.37 384.53 120.20 383.50 118.41 C 374.14 100.40 364.78 82.38 355.38 64.38 C 355.36 96.59 355.43 128.79 355.35 161.00 C 356.09 166.95 346.77 168.39 344.24 163.78 C 343.78 160.87 344.02 157.91 343.99 154.99 C 344.05 118.30 343.94 81.60 344.04 44.92 Z" />
<path fill="#7f7f7f" d=" M 527.35 40.46 C 528.82 39.85 530.46 40.05 532.03 39.96 C 553.71 40.04 575.40 40.00 597.08 39.98 C 598.65 40.09 600.62 39.87 601.71 41.29 C 604.42 44.39 602.94 51.21 598.09 50.73 C 588.65 50.84 579.20 50.70 569.76 50.76 C 569.75 87.55 569.77 124.34 569.76 161.13 C 570.49 166.86 561.66 168.27 558.92 164.12 C 558.29 162.87 558.42 161.41 558.34 160.05 C 558.39 123.62 558.36 87.19 558.36 50.76 C 548.58 50.66 538.80 50.94 529.02 50.66 C 524.22 50.26 523.66 42.76 527.35 40.46 Z" />
<path fill="#7f7f7f" d=" M 107.33 59.30 C 108.12 57.50 110.28 57.52 111.94 57.48 C 130.63 57.49 149.32 57.51 168.02 57.47 C 169.70 57.59 171.95 57.30 172.95 59.03 C 174.72 61.57 173.83 66.84 170.06 66.70 C 161.79 66.90 153.52 66.68 145.25 66.76 C 145.21 98.53 145.33 130.30 145.20 162.07 C 145.70 167.91 134.79 167.99 135.39 162.09 C 135.33 130.32 135.39 98.54 135.36 66.76 C 126.93 66.66 118.49 66.93 110.06 66.67 C 106.60 66.51 105.77 61.79 107.33 59.30 Z" />
<path fill="#7f7f7f" d=" M 187.83 59.78 C 188.85 57.44 191.80 57.53 193.95 57.47 C 210.32 57.50 226.69 57.51 243.05 57.47 C 244.56 57.60 246.32 57.35 247.58 58.36 C 250.19 61.07 248.55 67.40 244.13 66.62 C 228.55 66.67 212.97 66.61 197.39 66.63 C 197.38 80.29 197.38 93.96 197.38 107.62 C 205.26 107.71 213.15 107.45 221.02 107.70 C 225.61 107.61 225.84 116.40 221.01 116.03 C 213.14 116.30 205.25 116.02 197.38 116.13 C 197.39 129.87 197.37 143.62 197.39 157.37 C 213.26 157.42 229.13 157.26 244.99 157.43 C 248.49 157.34 249.54 161.92 248.32 164.55 C 247.55 166.71 244.87 166.41 243.05 166.53 C 226.70 166.49 210.34 166.49 194.00 166.53 C 191.82 166.50 188.97 166.50 187.87 164.22 C 187.16 161.22 187.56 158.10 187.48 155.05 C 187.50 126.37 187.50 97.69 187.48 69.01 C 187.55 65.94 187.18 62.80 187.83 59.78 Z" />
<path fill="#7f7f7f" d=" M 458.38 59.31 C 459.90 57.28 462.69 57.55 464.93 57.46 C 481.64 57.57 498.36 57.40 515.07 57.53 C 519.73 57.02 520.37 63.99 517.20 66.18 C 515.90 66.71 514.44 66.60 513.08 66.67 C 497.97 66.60 482.87 66.64 467.76 66.64 C 467.75 80.29 467.75 93.95 467.76 107.61 C 475.52 107.70 483.27 107.48 491.02 107.67 C 495.97 107.22 496.29 116.63 491.10 116.05 C 483.32 116.28 475.54 116.04 467.76 116.13 C 467.76 129.87 467.75 143.62 467.76 157.36 C 482.87 157.36 497.97 157.40 513.08 157.33 C 514.80 157.45 517.06 157.09 518.16 158.81 C 519.52 160.84 519.56 164.00 517.78 165.79 C 516.36 166.63 514.62 166.44 513.04 166.54 C 496.37 166.46 479.69 166.55 463.02 166.49 C 460.46 166.72 457.47 165.06 458.00 162.12 C 457.97 129.08 458.04 96.03 457.97 62.99 C 457.91 61.74 458.05 60.51 458.38 59.31 Z" />
<path fill="#7f7f7f" d=" M 702.65 62.00 C 702.10 58.84 705.30 57.25 708.00 57.50 C 724.69 57.46 741.39 57.53 758.09 57.47 C 759.77 57.62 761.98 57.25 763.14 58.83 C 764.36 60.88 764.15 63.80 762.60 65.63 C 761.48 66.90 759.59 66.50 758.11 66.66 C 742.91 66.61 727.71 66.64 712.51 66.64 C 712.50 80.30 712.51 93.95 712.51 107.61 C 720.35 107.71 728.21 107.46 736.05 107.69 C 740.73 107.49 741.02 116.39 736.13 116.03 C 728.26 116.30 720.38 116.03 712.51 116.13 C 712.51 129.87 712.50 143.62 712.51 157.36 C 728.37 157.42 744.24 157.27 760.10 157.43 C 765.13 157.28 765.36 166.93 760.04 166.45 C 743.36 166.62 726.67 166.42 709.99 166.54 C 707.68 166.44 704.76 166.79 703.22 164.65 C 702.48 163.21 702.67 161.53 702.59 159.98 C 702.68 127.32 702.56 94.66 702.65 62.00 Z" />
<path fill="#7f7f7f" d=" M 857.51 62.01 C 857.08 59.34 859.47 57.39 862.00 57.56 C 878.66 57.37 895.34 57.59 912.00 57.46 C 913.84 57.59 915.95 57.23 917.57 58.34 C 920.17 61.06 918.55 67.38 914.13 66.62 C 898.55 66.66 882.97 66.61 867.39 66.63 C 867.37 80.29 867.38 93.96 867.38 107.62 C 875.25 107.71 883.12 107.45 890.98 107.70 C 894.40 107.64 895.29 112.27 893.85 114.70 C 892.82 116.33 890.71 115.98 889.09 116.14 C 881.85 116.16 874.61 116.10 867.38 116.13 C 867.39 129.87 867.37 143.62 867.39 157.37 C 883.25 157.42 899.11 157.26 914.97 157.43 C 918.94 157.41 919.84 163.15 917.59 165.65 C 915.97 166.78 913.83 166.40 911.98 166.54 C 895.32 166.41 878.65 166.63 861.99 166.45 C 859.50 166.61 857.16 164.59 857.52 162.00 C 857.47 128.67 857.49 95.34 857.51 62.01 Z" />
<path fill="#7f7f7f" d=" M 263.37 62.02 C 263.23 60.22 263.97 58.04 266.05 57.81 C 271.66 57.07 277.34 57.67 282.99 57.49 C 293.30 57.58 304.59 56.40 313.67 62.36 C 321.12 66.74 324.79 75.34 325.41 83.67 C 326.03 92.58 325.88 102.22 321.07 110.07 C 316.21 117.88 306.89 121.78 297.97 122.23 C 289.74 122.58 281.49 122.29 273.25 122.38 C 273.19 135.61 273.35 148.84 273.20 162.07 C 273.53 166.42 267.44 167.71 264.63 165.33 C 263.27 164.36 263.46 162.53 263.35 161.08 C 263.39 128.06 263.35 95.04 263.37 62.02 Z" />
<path fill="#7f7f7f" d=" M 617.48 59.36 C 619.82 56.13 627.70 56.85 626.88 61.90 C 626.92 76.47 626.87 91.04 626.89 105.61 C 641.26 105.62 655.63 105.61 670.00 105.62 C 670.00 91.39 670.02 77.16 669.97 62.93 C 670.02 61.14 669.84 58.53 672.08 57.97 C 674.66 57.04 679.71 57.15 679.69 60.88 C 679.88 93.93 679.66 127.00 679.79 160.06 C 679.61 161.83 680.17 164.23 678.40 165.38 C 675.59 167.65 669.57 166.44 670.02 162.10 C 669.95 146.11 670.03 130.12 670.00 114.12 C 655.63 114.13 641.26 114.12 626.89 114.13 C 626.91 129.43 626.85 144.74 626.93 160.04 C 626.82 161.49 627.03 163.04 626.43 164.40 C 624.43 167.17 619.50 167.27 617.55 164.40 C 616.98 163.03 617.14 161.50 617.07 160.05 C 617.15 129.71 617.10 99.38 617.10 69.04 C 617.18 65.82 616.75 62.52 617.48 59.36 Z" />
<path fill="#7f7f7f" d=" M 778.47 62.96 C 778.44 60.99 778.50 58.05 781.07 57.77 C 786.36 57.11 791.72 57.65 797.04 57.49 C 807.69 57.52 819.17 56.61 828.73 62.24 C 835.32 65.73 839.41 72.71 840.30 80.00 C 841.51 89.10 840.82 99.37 834.74 106.73 C 830.52 111.94 823.98 114.39 817.61 115.75 C 825.19 130.38 832.86 144.98 840.43 159.62 C 842.78 163.26 838.15 167.59 834.48 166.63 C 832.39 165.73 831.34 163.55 830.27 161.69 C 822.58 146.74 814.98 131.73 807.19 116.83 C 800.92 116.94 794.65 116.88 788.39 116.89 C 788.33 131.95 788.46 147.01 788.34 162.07 C 788.72 166.98 780.92 168.02 778.84 164.18 C 778.16 161.19 778.55 158.07 778.48 155.03 C 778.50 124.34 778.51 93.65 778.47 62.96 Z" />
<path fill="#ffffff" d=" M 273.25 113.87 C 273.25 98.12 273.24 82.38 273.26 66.63 C 280.82 66.69 288.39 66.52 295.95 66.69 C 301.26 66.84 306.91 68.32 310.59 72.40 C 314.92 77.10 315.81 83.81 315.85 89.96 C 315.88 96.16 315.03 102.93 310.73 107.74 C 306.85 112.18 300.76 113.84 295.05 113.86 C 287.78 113.92 280.52 113.85 273.25 113.87 Z" />
<path fill="#ffffff" d=" M 788.39 108.37 C 788.38 94.46 788.38 80.54 788.39 66.63 C 796.24 66.74 804.10 66.41 811.95 66.79 C 818.33 67.13 825.23 69.76 828.37 75.69 C 831.64 82.07 831.63 89.86 829.50 96.60 C 827.43 103.25 820.74 107.30 814.07 107.96 C 805.54 108.81 796.94 108.17 788.39 108.37 Z" />
<path fill="#000000" d=" M 118.50 193.50 C 349.50 193.50 580.50 193.50 811.50 193.50 L 811.50 195.50 C 580.50 195.50 349.50 195.50 118.50 195.50 L 118.50 193.50 Z" />
<path fill="#7f7f7f" d=" M 148.96 222.04 C 148.78 220.13 153.11 220.12 152.84 222.07 C 153.24 233.37 152.88 244.71 153.00 256.03 C 152.91 260.33 153.33 264.68 152.68 268.95 C 151.52 269.19 150.35 269.36 149.17 269.45 C 149.13 268.44 149.06 266.43 149.02 265.42 C 147.05 267.37 144.91 269.49 142.01 269.82 C 135.64 271.06 129.39 265.38 129.06 259.12 C 128.88 255.69 128.85 252.24 129.12 248.82 C 129.71 242.76 135.94 237.86 142.00 238.96 C 144.84 239.20 146.86 241.38 148.85 243.18 C 148.82 236.14 148.45 229.06 148.96 222.04 Z" />
<path fill="#7f7f7f" d=" M 380.43 232.05 C 380.37 224.99 387.86 218.88 394.73 221.04 C 396.64 223.77 393.04 224.61 391.03 224.74 C 387.76 224.95 385.03 227.79 384.75 231.01 C 384.48 233.74 384.62 236.49 384.63 239.23 C 388.06 239.23 391.50 239.23 394.94 239.34 C 394.90 240.44 394.87 241.54 394.84 242.64 C 391.44 242.77 388.04 242.77 384.64 242.77 C 384.52 251.14 384.83 259.52 384.52 267.88 C 384.54 270.04 380.33 270.21 380.46 267.86 C 380.26 255.93 380.35 243.98 380.43 232.05 Z" />
<path fill="#7f7f7f" d=" M 161.27 225.52 C 163.87 223.26 167.67 227.35 164.90 229.63 C 162.29 232.22 158.14 227.48 161.27 225.52 Z" />
<path fill="#7f7f7f" d=" M 249.98 226.96 C 249.48 224.66 252.24 224.53 253.73 225.28 C 254.57 229.88 253.97 234.59 254.12 239.24 C 257.20 239.27 260.34 238.94 263.38 239.59 C 263.93 240.50 263.94 241.42 263.40 242.35 C 260.37 243.08 257.21 242.72 254.13 242.76 C 254.33 249.40 253.70 256.09 254.42 262.70 C 255.35 266.47 260.13 265.25 262.94 266.12 C 264.45 266.87 263.58 268.22 263.02 269.31 C 259.33 269.80 254.96 269.66 252.16 266.87 C 249.63 264.25 249.93 260.34 249.85 256.98 C 250.00 246.97 249.68 236.96 249.98 226.96 Z" />
<path fill="#7f7f7f" d=" M 269.41 225.44 C 272.15 223.28 275.76 227.69 272.78 229.79 C 270.00 232.04 266.23 227.34 269.41 225.44 Z" />
<path fill="#7f7f7f" d=" M 588.09 224.76 C 589.27 224.91 590.44 225.10 591.62 225.34 C 592.47 229.91 591.82 234.61 591.99 239.24 C 594.99 239.24 598.00 239.24 601.01 239.26 C 601.25 239.70 601.72 240.58 601.96 241.02 C 601.69 241.44 601.14 242.29 600.86 242.72 C 597.90 242.75 594.95 242.76 592.00 242.77 C 592.22 249.44 591.52 256.17 592.35 262.79 C 593.53 266.64 598.55 265.42 601.59 265.97 C 601.47 266.78 601.22 268.42 601.10 269.23 C 597.40 269.87 593.00 269.66 590.14 266.95 C 587.52 264.33 587.90 260.35 587.84 256.97 C 588.03 246.23 587.60 235.49 588.09 224.76 Z" />
<path fill="#7f7f7f" d=" M 799.71 227.00 C 799.28 224.66 802.08 224.44 803.57 225.38 C 804.26 229.96 803.77 234.62 803.88 239.23 C 807.10 239.24 810.32 239.23 813.55 239.32 C 813.40 240.40 813.21 241.47 812.96 242.54 C 809.95 242.91 806.91 242.76 803.89 242.77 C 804.10 249.46 803.44 256.21 804.21 262.87 C 805.46 267.94 814.49 263.10 813.55 269.37 C 809.65 269.51 805.05 269.95 802.02 266.98 C 799.39 264.38 799.69 260.38 799.59 256.99 C 799.73 246.99 799.44 236.99 799.71 227.00 Z" />
<path fill="#7f7f7f" d=" M 160.99 239.58 C 162.36 239.56 163.74 239.54 165.12 239.51 C 165.09 249.47 165.21 259.44 165.05 269.40 C 163.79 269.35 162.54 269.21 161.30 268.99 C 160.57 259.22 161.22 249.38 160.99 239.58 Z" />
<path fill="#7f7f7f" d=" M 173.25 239.61 C 174.60 239.57 175.94 239.52 177.29 239.48 C 177.25 240.51 177.15 242.56 177.11 243.58 C 179.90 239.80 184.40 238.30 189.00 238.80 C 189.31 239.45 189.92 240.75 190.23 241.40 C 187.87 242.87 185.01 242.72 182.42 243.50 C 179.55 244.85 177.59 247.86 177.48 251.03 C 177.16 257.14 177.59 263.26 177.24 269.37 C 175.92 269.27 174.61 269.16 173.29 269.05 C 173.19 259.24 173.26 249.42 173.25 239.61 Z" />
<path fill="#7f7f7f" d=" M 193.29 250.10 C 193.44 243.65 199.68 238.35 206.04 238.85 C 212.99 238.86 219.04 246.00 217.22 252.87 C 216.94 254.89 214.75 255.48 213.02 255.56 C 207.79 255.81 202.55 255.54 197.32 255.65 C 197.56 258.55 197.46 262.01 200.06 263.96 C 204.42 267.64 210.77 266.49 215.19 263.53 C 215.67 264.20 216.64 265.54 217.12 266.21 C 211.46 271.46 201.62 271.29 196.23 265.77 C 192.24 261.59 193.27 255.35 193.29 250.10 Z" />
<path fill="#7f7f7f" d=" M 231.26 239.21 C 235.57 238.42 240.84 238.66 243.94 242.19 C 244.14 243.35 243.78 244.30 242.84 245.03 C 239.93 244.14 237.14 242.28 233.96 242.75 C 230.54 242.82 227.26 245.45 227.05 248.98 C 226.75 252.92 226.60 256.95 227.25 260.87 C 228.45 265.95 235.05 267.29 239.26 265.23 C 241.05 264.69 243.24 262.53 244.48 265.06 C 244.52 267.69 241.68 268.72 239.61 269.41 C 234.47 270.70 227.85 270.07 224.69 265.27 C 221.79 260.79 222.65 255.12 222.69 250.06 C 222.66 245.04 226.18 240.10 231.26 239.21 Z" />
<path fill="#7f7f7f" d=" M 269.06 239.55 C 270.44 239.54 271.82 239.53 273.20 239.53 C 273.13 249.01 273.56 258.53 273.03 267.99 C 273.19 270.12 269.02 270.04 269.18 267.96 C 268.75 258.50 269.08 249.01 269.06 239.55 Z" />
<path fill="#7f7f7f" d=" M 289.24 239.17 C 293.77 238.04 298.76 239.73 301.68 243.38 C 305.42 247.64 304.38 253.78 304.27 258.99 C 303.71 267.67 292.34 273.37 285.35 267.73 C 279.42 263.85 279.57 256.15 280.11 249.90 C 280.38 244.83 284.40 240.40 289.24 239.17 Z" />
<path fill="#7f7f7f" d=" M 311.25 239.58 C 312.56 239.53 313.87 239.51 315.19 239.51 C 315.18 240.42 315.18 242.24 315.18 243.15 C 317.34 241.11 319.75 238.85 322.94 238.87 C 329.14 238.26 334.95 243.78 335.07 249.92 C 335.22 256.39 335.18 262.87 334.97 269.33 C 333.68 269.29 332.39 269.25 331.10 269.20 C 330.85 263.10 331.15 257.00 330.97 250.91 C 331.07 246.67 327.33 242.61 323.03 242.72 C 319.08 242.58 315.51 246.03 315.47 249.96 C 315.16 256.42 315.61 262.89 315.23 269.35 C 313.92 269.28 312.61 269.20 311.30 269.11 C 311.18 259.27 311.26 249.43 311.25 239.58 Z" />
<path fill="#7f7f7f" d=" M 346.69 239.77 C 351.35 237.96 356.84 238.76 360.90 241.64 C 360.48 242.29 359.63 243.60 359.21 244.25 C 355.76 243.11 351.90 241.36 348.33 243.09 C 345.68 244.20 344.37 248.25 346.82 250.23 C 350.36 252.84 355.30 252.56 358.73 255.37 C 362.95 258.88 362.17 266.79 356.89 268.87 C 352.10 270.74 346.01 270.42 341.93 267.09 C 340.54 266.08 341.57 264.40 341.70 263.09 C 345.59 265.38 350.23 267.58 354.79 265.83 C 358.02 264.80 358.46 260.05 355.83 258.13 C 352.18 255.32 346.85 255.76 343.51 252.43 C 339.98 248.58 341.99 241.70 346.69 239.77 Z" />
<path fill="#7f7f7f" d=" M 406.35 239.66 C 413.47 236.57 422.65 242.07 422.94 249.89 C 423.08 255.46 424.01 262.17 419.35 266.31 C 414.86 271.28 406.33 271.10 402.03 265.98 C 397.75 261.81 398.71 255.40 398.80 250.01 C 398.92 245.43 402.23 241.38 406.35 239.66 Z" />
<path fill="#7f7f7f" d=" M 429.88 239.57 C 431.22 239.55 432.57 239.55 433.93 239.55 C 433.89 240.54 433.81 242.54 433.77 243.53 C 436.65 239.91 441.36 237.72 445.97 239.23 C 447.85 242.10 444.11 242.98 441.98 242.88 C 437.76 242.90 434.33 246.75 434.14 250.83 C 433.74 257.01 434.19 263.21 433.90 269.39 C 432.65 269.32 431.40 269.20 430.17 269.04 C 429.47 259.24 430.07 249.39 429.88 239.57 Z" />
<path fill="#7f7f7f" d=" M 463.98 241.29 C 467.89 238.58 473.15 238.21 477.60 239.66 C 481.78 241.16 483.87 245.76 484.02 249.95 C 484.27 256.39 484.15 262.84 483.99 269.28 C 482.72 269.27 481.46 269.25 480.21 269.23 C 480.19 268.25 480.16 266.29 480.14 265.31 C 476.67 268.76 471.52 271.31 466.63 269.31 C 460.60 267.34 459.85 257.37 465.60 254.64 C 470.09 252.48 475.23 252.82 480.09 252.67 C 479.81 249.40 479.48 245.52 476.46 243.54 C 472.66 241.21 468.25 243.26 464.51 244.58 C 464.31 243.48 464.14 242.39 463.98 241.29 Z" />
<path fill="#7f7f7f" d=" M 491.90 239.46 C 493.23 239.52 494.56 239.57 495.90 239.62 C 495.88 240.50 495.83 242.28 495.80 243.17 C 497.84 241.28 500.01 239.10 502.97 238.93 C 509.49 237.88 515.66 243.69 515.81 250.11 C 515.90 256.36 516.14 262.65 515.66 268.89 C 514.38 269.21 513.09 269.41 511.79 269.51 C 511.43 263.34 511.74 257.16 511.61 250.99 C 511.82 246.45 507.55 242.17 502.97 242.75 C 499.34 243.00 496.26 246.24 496.14 249.86 C 495.73 256.37 496.21 262.89 495.90 269.40 C 494.64 269.32 493.40 269.20 492.17 269.03 C 491.48 259.20 492.05 249.31 491.90 239.46 Z" />
<path fill="#7f7f7f" d=" M 520.23 239.92 C 521.51 239.48 522.79 239.05 524.08 238.63 C 527.24 246.82 530.21 255.08 533.33 263.28 C 536.22 255.01 539.05 246.71 542.06 238.48 C 543.23 238.99 544.39 239.52 545.56 240.06 C 544.58 244.80 542.40 249.16 540.87 253.73 C 537.36 262.27 535.21 271.46 530.39 279.39 C 528.49 282.89 524.61 284.54 520.75 284.42 C 520.74 283.59 520.72 281.94 520.71 281.11 C 527.04 280.18 529.56 273.71 531.20 268.34 C 527.51 258.88 523.70 249.46 520.23 239.92 Z" />
<path fill="#7f7f7f" d=" M 567.44 239.61 C 572.01 238.02 577.21 238.86 581.19 241.57 C 580.84 242.24 580.15 243.57 579.80 244.24 C 576.34 243.22 572.58 241.47 568.98 242.94 C 566.28 243.95 564.65 247.88 566.99 250.06 C 570.75 253.12 576.52 252.39 579.85 256.13 C 583.52 260.20 581.83 267.79 576.31 269.25 C 571.40 270.60 564.74 270.39 561.45 265.96 C 561.64 265.24 562.04 263.82 562.24 263.10 C 566.13 265.60 571.06 267.68 575.62 265.60 C 578.32 264.37 578.66 260.35 576.52 258.44 C 572.87 255.20 567.10 255.92 563.71 252.27 C 560.28 248.23 562.55 241.31 567.44 239.61 Z" />
<path fill="#7f7f7f" d=" M 606.13 248.06 C 607.68 239.93 618.49 236.09 625.03 241.00 C 629.26 243.72 631.93 250.52 628.58 254.72 C 622.61 256.72 616.00 255.13 609.79 255.64 C 609.87 259.11 610.46 263.20 613.96 264.91 C 618.40 267.64 623.53 265.72 627.86 263.85 C 628.35 264.38 629.33 265.44 629.82 265.97 C 623.43 272.56 610.12 271.06 606.56 262.21 C 605.37 257.62 605.75 252.73 606.13 248.06 Z" />
<path fill="#7f7f7f" d=" M 636.25 239.62 C 637.60 239.60 638.95 239.54 640.31 239.42 C 640.26 240.43 640.15 242.44 640.10 243.45 C 642.07 241.55 644.11 239.33 647.00 239.00 C 653.23 237.73 659.60 242.79 660.23 249.01 C 660.54 252.34 660.51 255.72 660.29 259.06 C 659.86 265.38 653.55 271.18 647.08 269.78 C 644.25 269.34 642.18 267.22 640.27 265.28 C 640.46 271.65 640.44 278.02 640.26 284.39 C 638.75 283.95 635.74 284.54 636.30 282.06 C 636.14 267.92 636.29 253.77 636.25 239.62 Z" />
<path fill="#7f7f7f" d=" M 685.02 240.09 C 690.15 237.90 696.94 238.28 700.80 242.73 C 700.38 243.35 699.55 244.59 699.13 245.21 C 695.24 243.08 690.18 241.39 686.14 244.14 C 682.63 246.55 683.13 251.28 683.06 255.00 C 683.08 258.40 683.01 262.65 686.24 264.75 C 690.39 267.41 695.59 265.85 699.42 263.35 C 700.40 264.56 701.47 266.58 699.60 267.59 C 694.77 270.96 687.48 270.88 682.79 267.29 C 678.00 263.26 679.01 256.44 679.00 250.88 C 678.85 246.55 680.93 241.94 685.02 240.09 Z" />
<path fill="#7f7f7f" d=" M 713.33 239.47 C 720.46 236.78 729.17 242.39 729.42 250.06 C 729.65 255.49 730.34 261.93 726.02 266.07 C 721.67 271.08 713.18 271.28 708.75 266.26 C 704.23 262.12 704.97 255.51 705.19 249.99 C 705.41 245.24 708.93 241.03 713.33 239.47 Z" />
<path fill="#7f7f7f" d=" M 736.05 239.98 C 736.55 239.75 737.55 239.30 738.05 239.08 C 738.56 239.31 739.58 239.78 740.09 240.02 C 740.23 246.04 739.96 252.06 740.19 258.08 C 740.21 262.22 743.81 266.09 748.01 266.13 C 752.29 266.23 756.15 262.36 756.07 258.09 C 756.24 251.93 756.01 245.77 756.14 239.61 C 757.52 239.60 758.91 239.55 760.31 239.48 C 760.36 245.64 760.51 251.80 760.31 257.95 C 760.38 264.41 754.48 270.14 748.06 269.98 C 741.74 270.07 735.97 264.45 736.04 258.10 C 735.89 252.06 736.02 246.02 736.05 239.98 Z" />
<path fill="#7f7f7f" d=" M 768.00 239.57 C 769.35 239.57 770.71 239.55 772.07 239.51 C 772.03 240.47 771.93 242.38 771.89 243.33 C 773.87 241.39 775.99 239.19 778.94 238.96 C 785.40 237.81 791.75 243.47 791.92 249.90 C 792.14 256.32 792.00 262.76 791.90 269.19 C 790.60 269.25 789.31 269.29 788.04 269.34 C 787.56 262.67 788.27 255.96 787.64 249.31 C 786.84 244.17 780.40 240.82 775.92 243.81 C 773.03 245.42 772.02 248.84 772.23 251.95 C 771.98 257.62 772.80 263.35 771.84 268.96 C 770.29 270.22 767.61 269.31 768.07 267.10 C 767.85 257.93 768.08 248.75 768.00 239.57 Z" />
<path fill="#ffffff" d=" M 199.70 244.70 C 202.83 241.29 208.93 241.55 211.68 245.31 C 213.38 247.22 213.27 249.89 213.49 252.28 C 208.10 252.61 202.70 252.50 197.30 252.46 C 197.59 249.78 197.45 246.63 199.70 244.70 Z" />
<path fill="#ffffff" d=" M 615.42 242.69 C 620.93 240.53 627.33 246.16 625.76 251.88 C 620.59 253.24 615.08 252.18 609.78 252.48 C 609.65 248.48 611.17 243.89 615.42 242.69 Z" />
<path fill="#ffffff" d=" M 138.25 243.22 C 142.31 241.51 147.51 244.06 148.46 248.40 C 149.00 251.90 148.82 255.47 148.73 259.00 C 148.68 264.72 140.75 268.41 136.41 264.48 C 132.18 261.33 132.89 255.53 133.05 250.90 C 133.07 247.60 135.20 244.46 138.25 243.22 Z" />
<path fill="#ffffff" d=" M 289.24 243.26 C 292.14 242.06 295.74 242.83 297.81 245.21 C 300.99 248.25 300.24 253.02 300.25 256.98 C 300.31 259.94 299.10 262.96 296.61 264.68 C 293.61 267.00 288.96 266.43 286.51 263.57 C 283.28 260.18 284.33 255.12 284.26 250.89 C 284.17 247.62 286.29 244.56 289.24 243.26 Z" />
<path fill="#ffffff" d=" M 407.42 243.48 C 410.45 241.94 414.43 242.75 416.63 245.35 C 419.85 248.74 418.82 253.83 418.83 258.06 C 418.90 263.77 411.99 268.34 406.98 265.06 C 401.97 262.19 402.76 255.76 402.91 250.87 C 402.87 247.79 404.73 244.91 407.42 243.48 Z" />
<path fill="#ffffff" d=" M 645.26 243.26 C 648.15 242.07 651.71 242.81 653.82 245.15 C 657.06 248.20 656.20 253.06 656.26 257.06 C 656.42 260.72 654.21 264.38 650.75 265.68 C 645.97 267.53 639.97 263.26 640.37 258.10 C 640.35 252.96 639.29 245.62 645.26 243.26 Z" />
<path fill="#ffffff" d=" M 714.30 243.28 C 718.96 241.15 724.81 244.91 725.15 249.92 C 725.37 253.25 725.47 256.63 724.96 259.94 C 723.88 265.23 716.75 268.16 712.55 264.45 C 708.37 261.26 709.18 255.47 709.30 250.87 C 709.30 247.64 711.33 244.56 714.30 243.28 Z" />
<path fill="#ffffff" d=" M 468.65 256.81 C 472.25 255.41 476.20 255.67 479.99 255.59 C 479.85 257.54 480.03 259.55 479.50 261.46 C 477.57 265.02 473.09 267.33 469.11 266.06 C 465.09 264.94 464.67 258.24 468.65 256.81 Z" />
</svg>
