<?xml version="1.0" encoding="UTF-8" ?>
<!DOCTYPE svg PUBLIC "-//W3C//DTD SVG 1.1//EN" "http://www.w3.org/Graphics/SVG/1.1/DTD/svg11.dtd">
<svg width="800pt" height="800pt" viewBox="0 0 800 800" version="1.1" xmlns="http://www.w3.org/2000/svg">
<path fill="#ffffff" d=" M 0.00 0.00 L 800.00 0.00 L 800.00 800.00 L 0.00 800.00 L 0.00 0.00 Z" />
<path fill="#7d7d7d" d=" M 52.01 64.01 C 274.34 63.99 496.67 63.99 718.99 64.01 C 719.00 112.34 719.01 160.66 718.99 208.99 C 496.66 209.01 274.33 209.01 52.01 208.99 C 51.99 160.66 51.99 112.34 52.01 64.01 Z" />
<path fill="#7d7d7d" d=" M 53.01 323.01 C 275.34 322.99 497.67 322.99 719.99 323.01 C 720.00 371.34 720.01 419.66 719.99 467.99 C 497.66 468.01 275.33 468.01 53.01 467.99 C 52.99 419.66 52.99 371.34 53.01 323.01 Z" />
<path fill="#7d7d7d" d=" M 51.01 586.01 C 273.34 585.99 495.67 585.99 717.99 586.01 C 718.00 634.33 718.01 682.66 717.99 730.99 C 495.66 731.01 273.33 731.00 51.01 730.99 C 50.99 682.66 50.99 634.34 51.01 586.01 Z" />
</svg>
